<?xml version="1.0" encoding="UTF-8"?><svg id="Layer_2" xmlns="http://www.w3.org/2000/svg" xmlns:xlink="http://www.w3.org/1999/xlink" viewBox="0 0 403 617"><defs><style>.cls-1{clip-path:url(#clippath);}.cls-2{fill:none;}.cls-3{fill:url(#linear-gradient);}.cls-4{fill:#919191;}</style><clipPath id="clippath"><rect class="cls-2" width="403" height="617"/></clipPath><linearGradient id="linear-gradient" x1="-124.38" y1="665.62" x2="-123.38" y2="665.62" gradientTransform="translate(49257.45 263892.65) scale(396 -396)" gradientUnits="userSpaceOnUse"><stop offset="0" stop-color="#55395a"/><stop offset=".11" stop-color="#503c5c"/><stop offset=".22" stop-color="#444663"/><stop offset=".34" stop-color="#2e566e"/><stop offset=".36" stop-color="#2a5a71"/><stop offset=".71" stop-color="#29626a"/><stop offset="1" stop-color="#296d61"/></linearGradient></defs><g id="Layer_1-2"><g class="cls-1"><rect class="cls-4" x="4" y="4" width="395" height="609" rx="50" ry="50"/><path class="cls-3" d="M54,4v3.5c-25.68,.05-46.45,20.82-46.5,46.5v509c.05,25.68,20.82,46.45,46.5,46.5H349c25.68-.05,46.45-20.82,46.5-46.5V54c-.05-25.68-20.82-46.45-46.5-46.5H54V.5H349c29.55,0,53.5,23.95,53.5,53.5v509c0,29.55-23.95,53.5-53.5,53.5H54c-29.55,0-53.5-23.95-53.5-53.5V54C.5,24.45,24.45,.5,54,.5v3.5Z"/></g></g></svg>